<svg width="227.9pt" height="301.08" viewBox="0 0 227.9 225.81" class="displayed_equation" xmlns="http://www.w3.org/2000/svg" xmlns:xlink="http://www.w3.org/1999/xlink">
  <defs>
    <clipPath id="svg193103976340tikz_00004M">
      <path d="M0 0H50V56H0z" />
    </clipPath>
    <clipPath id="svg193103976340tikz_00004b">
      <path d="M 0.15625 0.679688 L 24.234375 0.679688 L 24.234375 51.988281 L 0.15625 51.988281 Z M 0.15625 0.679688" />
    </clipPath>
    <clipPath id="svg193103976340tikz_00004aE">
      <path d="M0 0H25V45H0z" />
    </clipPath>
    <clipPath id="svg193103976340tikz_00004d">
      <path d="M 0.496094 0.699219 L 24.300781 0.699219 L 24.300781 55.6875 L 0.496094 55.6875 Z M 0.496094 0.699219" />
    </clipPath>
    <clipPath id="svg193103976340tikz_00004c">
      <path d="M0 0H25V56H0z" />
    </clipPath>
    <clipPath id="svg193103976340tikz_00004aF">
      <path d="M 0.484375 1 L 24.964844 1 L 24.964844 44.535156 L 0.484375 44.535156 Z M 0.484375 1" />
    </clipPath>
    <clipPath id="svg193103976340tikz_00004aI">
      <path d="M 33 15.738281 L 38 15.738281 L 38 208 L 33 208 Z M 33 15.738281" />
    </clipPath>
    <clipPath id="svg193103976340tikz_00004f">
      <path d="M 1 0.820313 L 4.726563 0.820313 L 4.726563 192.308594 L 1 192.308594 Z M 1 0.820313" />
    </clipPath>
    <clipPath id="svg193103976340tikz_00004g">
      <path d="M 0.878906 0.820313 L 4.726563 0.820313 L 4.726563 192.308594 L 0.878906 192.308594 Z M 0.878906 0.820313" />
    </clipPath>
    <clipPath id="svg193103976340tikz_00004e">
      <path d="M0 0H5V193H0z" />
    </clipPath>
    <clipPath id="svg193103976340tikz_00004aB">
      <path d="M0 0H25V45H0z" />
    </clipPath>
    <clipPath id="svg193103976340tikz_00004aK">
      <path d="M 15.734375 204 L 182 204 L 182 210 L 15.734375 210 Z M 15.734375 204" />
    </clipPath>
    <clipPath id="svg193103976340tikz_00004i">
      <path d="M 0.734375 0.324219 L 166.890625 0.324219 L 166.890625 5.992188 L 0.734375 5.992188 Z M 0.734375 0.324219" />
    </clipPath>
    <clipPath id="svg193103976340tikz_00004h">
      <path d="M0 0H167V6H0z" />
    </clipPath>
    <clipPath id="svg193103976340tikz_00004aC">
      <path d="M 0.484375 0.953125 L 24.964844 0.953125 L 24.964844 44.535156 L 0.484375 44.535156 Z M 0.484375 0.953125" />
    </clipPath>
    <clipPath id="svg193103976340tikz_00004k">
      <path d="M 1 0.140625 L 78.605469 0.140625 L 78.605469 3.75 L 1 3.75 Z M 1 0.140625" />
    </clipPath>
    <clipPath id="svg193103976340tikz_00004l">
      <path d="M 0.988281 0.140625 L 78.605469 0.140625 L 78.605469 3.75 L 0.988281 3.75 Z M 0.988281 0.140625" />
    </clipPath>
    <clipPath id="svg193103976340tikz_00004j">
      <path d="M0 0H79V4H0z" />
    </clipPath>
    <clipPath id="svg193103976340tikz_00004bv">
      <path d="M 106.484375 153.953125 L 130.964844 153.953125 L 130.964844 197.535156 L 106.484375 197.535156 Z M 106.484375 153.953125" />
    </clipPath>
    <clipPath id="svg193103976340tikz_00004n">
      <path d="M 0.164063 0.308594 L 9.445313 0.308594 L 9.445313 17.585938 L 0.164063 17.585938 Z M 0.164063 0.308594" />
    </clipPath>
    <clipPath id="svg193103976340tikz_00004m">
      <path d="M0 0H10V18H0z" />
    </clipPath>
    <clipPath id="svg193103976340tikz_00004az">
      <path d="M0 0H3V41H0z" />
    </clipPath>
    <clipPath id="svg193103976340tikz_00004p">
      <path d="M 0.535156 0.246094 L 106.679688 0.246094 L 106.679688 44.753906 L 0.535156 44.753906 Z M 0.535156 0.246094" />
    </clipPath>
    <clipPath id="svg193103976340tikz_00004o">
      <path d="M0 0H107V45H0z" />
    </clipPath>
    <clipPath id="svg193103976340tikz_00004aA">
      <path d="M 0.589844 0.0703125 L 2.679688 0.0703125 L 2.679688 40.96875 L 0.589844 40.96875 Z M 0.589844 0.0703125" />
    </clipPath>
    <clipPath id="svg193103976340tikz_00004aP">
      <path d="M 107 38 L 208 38 L 208 83 L 107 83 Z M 107 38" />
    </clipPath>
    <clipPath id="svg193103976340tikz_00004aQ">
      <path d="M 110.136719 38.40625 C 109.664063 38.40625 107.21875 38.488281 107.882813 39.492188 C 108.039063 39.734375 108.324219 39.851563 108.59375 39.945313 C 109.609375 40.296875 110.695313 40.515625 111.742188 40.742188 C 112.6875 40.949219 113.632813 41.15625 114.574219 41.363281 C 117.4375 41.988281 120.300781 42.613281 123.160156 43.238281 C 126.589844 43.992188 130.019531 44.738281 133.449219 45.488281 C 136.757813 46.214844 140.0625 46.9375 143.367188 47.660156 C 145.859375 48.203125 148.351563 48.75 150.84375 49.292969 C 151.828125 49.511719 152.8125 49.726563 153.796875 49.941406 L 157.769531 52.605469 L 188.605469 82.148438 L 194.210938 82.597656 L 198.527344 80.5625 L 207.519531 38.40625 C 207.519531 38.40625 110.136719 38.40625 110.136719 38.40625 Z M 110.136719 38.40625" />
    </clipPath>
    <clipPath id="svg193103976340tikz_00004aR">
      <path d="M 110.136719 38.40625 C 109.664063 38.40625 107.21875 38.488281 107.882813 39.492188 C 108.039063 39.734375 108.324219 39.851563 108.59375 39.945313 C 109.609375 40.296875 110.695313 40.515625 111.742188 40.742188 C 112.6875 40.949219 113.632813 41.15625 114.574219 41.363281 C 117.4375 41.988281 120.300781 42.613281 123.160156 43.238281 C 126.589844 43.992188 130.019531 44.738281 133.449219 45.488281 C 136.757813 46.214844 140.0625 46.9375 143.367188 47.660156 C 145.859375 48.203125 148.351563 48.75 150.84375 49.292969 C 151.828125 49.511719 152.8125 49.726563 153.796875 49.941406 L 157.769531 52.605469 L 188.605469 82.148438 L 194.210938 82.597656 L 198.527344 80.5625 L 207.519531 38.40625 C 207.519531 38.40625 110.136719 38.40625 110.136719 38.40625 Z M 110.136719 38.40625" />
    </clipPath>
    <clipPath id="svg193103976340tikz_00004aw">
      <path d="M0 0H3V41H0z" />
    </clipPath>
    <clipPath id="svg193103976340tikz_00004aT">
      <path d="M 107 15.738281 L 212.160156 15.738281 L 212.160156 85 L 107 85 Z M 107 15.738281" />
    </clipPath>
    <clipPath id="svg193103976340tikz_00004r">
      <path d="M 0.503906 0.828125 L 105.144531 0.828125 L 105.144531 69.617188 L 0.503906 69.617188 Z M 0.503906 0.828125" />
    </clipPath>
    <clipPath id="svg193103976340tikz_00004q">
      <path d="M0 0H106V70H0z" />
    </clipPath>
    <clipPath id="svg193103976340tikz_00004ax">
      <path d="M 0.589844 0.0703125 L 2.679688 0.0703125 L 2.679688 40.96875 L 0.589844 40.96875 Z M 0.589844 0.0703125" />
    </clipPath>
    <clipPath id="svg193103976340tikz_00004aV">
      <path d="M 107.382813 15.738281 L 212.160156 15.738281 L 212.160156 84.695313 L 107.382813 84.695313 Z M 107.382813 15.738281" />
    </clipPath>
    <clipPath id="svg193103976340tikz_00004bs">
      <path d="M 105.589844 110.070313 L 107.679688 110.070313 L 107.679688 150.96875 L 105.589844 150.96875 Z M 105.589844 110.070313" />
    </clipPath>
    <clipPath id="svg193103976340tikz_00004t">
      <path d="M 0.382813 0.738281 L 105.160156 0.738281 L 105.160156 69.695313 L 0.382813 69.695313 Z M 0.382813 0.738281" />
    </clipPath>
    <clipPath id="svg193103976340tikz_00004s">
      <path d="M0 0H106V70H0z" />
    </clipPath>
    <clipPath id="svg193103976340tikz_00004at">
      <path d="M0 0H71V101H0z" />
    </clipPath>
    <clipPath id="svg193103976340tikz_00004aq">
      <path d="M0 0H71V101H0z" />
    </clipPath>
    <clipPath id="svg193103976340tikz_00004A">
      <path d="M 0.382813 0.738281 L 105.160156 0.738281 L 105.160156 69.695313 L 0.382813 69.695313 Z M 0.382813 0.738281" />
    </clipPath>
    <clipPath id="svg193103976340tikz_00004x">
      <path d="M 0.511719 0.820313 L 105 0.820313 L 105 69.613281 L 0.511719 69.613281 Z M 0.511719 0.820313" />
    </clipPath>
    <clipPath id="svg193103976340tikz_00004y">
      <path d="M 0.511719 0.820313 L 105.117188 0.820313 L 105.117188 69.613281 L 0.511719 69.613281 Z M 0.511719 0.820313" />
    </clipPath>
    <clipPath id="svg193103976340tikz_00004w">
      <path d="M0 0H106V70H0z" />
    </clipPath>
    <clipPath id="svg193103976340tikz_00004as">
      <path d="M 0.554688 0.984375 L 70.410156 0.984375 L 70.410156 100.59375 L 0.554688 100.59375 Z M 0.554688 0.984375" />
    </clipPath>
    <clipPath id="svg193103976340tikz_00004z">
      <path d="M0 0H106V70H0z" />
    </clipPath>
    <clipPath id="svg193103976340tikz_00004ar">
      <path d="M 0.554688 1 L 70.410156 1 L 70.410156 100.59375 L 0.554688 100.59375 Z M 0.554688 1" />
    </clipPath>
    <clipPath id="svg193103976340tikz_00004aY">
      <path d="M 115.144531 28.574219 L 154.847656 28.574219 L 154.847656 37.230469 L 115.144531 37.230469 Z M 115.144531 28.574219" />
    </clipPath>
    <clipPath id="svg193103976340tikz_00004D">
      <path d="M 0.144531 0.574219 L 39.847656 0.574219 L 39.847656 9.230469 L 0.144531 9.230469 Z M 0.144531 0.574219" />
    </clipPath>
    <clipPath id="svg193103976340tikz_00004C">
      <path d="M0 0H40V10H0z" />
    </clipPath>
    <clipPath id="svg193103976340tikz_00004au">
      <path d="M 0.378906 0.695313 L 70.53125 0.695313 L 70.53125 100.699219 L 0.378906 100.699219 Z M 0.378906 0.695313" />
    </clipPath>
    <clipPath id="svg193103976340tikz_00004an">
      <path d="M0 0H71V101H0z" />
    </clipPath>
    <clipPath id="svg193103976340tikz_00004G">
      <path d="M 0.144531 0.574219 L 39.847656 0.574219 L 39.847656 9.230469 L 0.144531 9.230469 Z M 0.144531 0.574219" />
    </clipPath>
    <clipPath id="svg193103976340tikz_00004F">
      <path d="M0 0H40V10H0z" />
    </clipPath>
    <clipPath id="svg193103976340tikz_00004ao">
      <path d="M 0.378906 0.695313 L 70.53125 0.695313 L 70.53125 100.699219 L 0.378906 100.699219 Z M 0.378906 0.695313" />
    </clipPath>
    <clipPath id="svg193103976340tikz_00004bb">
      <path d="M 157.832031 22.304688 L 205.59375 22.304688 L 205.59375 38.125 L 157.832031 38.125 Z M 157.832031 22.304688" />
    </clipPath>
    <clipPath id="svg193103976340tikz_00004I">
      <path d="M 0.832031 0.304688 L 48.59375 0.304688 L 48.59375 16.125 L 0.832031 16.125 Z M 0.832031 0.304688" />
    </clipPath>
    <clipPath id="svg193103976340tikz_00004H">
      <path d="M0 0H49V17H0z" />
    </clipPath>
    <clipPath id="svg193103976340tikz_00004bp">
      <path d="M 67.378906 104.695313 L 137.53125 104.695313 L 137.53125 204.699219 L 67.378906 204.699219 Z M 67.378906 104.695313" />
    </clipPath>
    <clipPath id="svg193103976340tikz_00004ak">
      <path d="M0 0H71V101H0z" />
    </clipPath>
    <clipPath id="svg193103976340tikz_00004L">
      <path d="M 1 0.304688 L 48.59375 0.304688 L 48.59375 16 L 1 16 Z M 1 0.304688" />
    </clipPath>
    <clipPath id="svg193103976340tikz_00004K">
      <path d="M0 0H49V17H0z" />
    </clipPath>
    <clipPath id="svg193103976340tikz_00004am">
      <path d="M 0.554688 0.984375 L 70.410156 0.984375 L 70.410156 100.621094 L 0.554688 100.621094 Z M 0.554688 0.984375" />
    </clipPath>
    <clipPath id="svg193103976340tikz_00004be">
      <path d="M 78.125 56.636719 L 127.382813 56.636719 L 127.382813 111.859375 L 78.125 111.859375 Z M 78.125 56.636719" />
    </clipPath>
    <clipPath id="svg193103976340tikz_00004N">
      <path d="M 0.125 0.636719 L 49.382813 0.636719 L 49.382813 55.859375 L 0.125 55.859375 Z M 0.125 0.636719" />
    </clipPath>
    <clipPath id="svg193103976340tikz_00004a">
      <path d="M0 0H25V52H0z" />
    </clipPath>
    <clipPath id="svg193103976340tikz_00004al">
      <path d="M 0.554688 1 L 70.410156 1 L 70.410156 100.621094 L 0.554688 100.621094 Z M 0.554688 1" />
    </clipPath>
    <clipPath id="svg193103976340tikz_00004ah">
      <path d="M0 0H5V8H0z" />
    </clipPath>
    <clipPath id="svg193103976340tikz_00004S">
      <path d="M 0.125 0.636719 L 49.382813 0.636719 L 49.382813 55.859375 L 0.125 55.859375 Z M 0.125 0.636719" />
    </clipPath>
    <clipPath id="svg193103976340tikz_00004Q">
      <path d="M 0.140625 0.699219 L 49.285156 0.699219 L 49.285156 55.640625 L 0.140625 55.640625 Z M 0.140625 0.699219" />
    </clipPath>
    <clipPath id="svg193103976340tikz_00004P">
      <path d="M0 0H50V56H0z" />
    </clipPath>
    <clipPath id="svg193103976340tikz_00004aj">
      <path d="M 0.839844 0.597656 L 4.542969 0.597656 L 4.542969 7.023438 L 0.839844 7.023438 Z M 0.839844 0.597656" />
    </clipPath>
    <clipPath id="svg193103976340tikz_00004R">
      <path d="M0 0H50V56H0z" />
    </clipPath>
    <clipPath id="svg193103976340tikz_00004ai">
      <path d="M 0.839844 0.597656 L 4.542969 0.597656 L 4.542969 7 L 0.839844 7 Z M 0.839844 0.597656" />
    </clipPath>
    <clipPath id="svg193103976340tikz_00004bh">
      <path d="M 102.902344 59.320313 L 121.414063 59.320313 L 121.414063 101.710938 L 102.902344 101.710938 Z M 102.902344 59.320313" />
    </clipPath>
    <clipPath id="svg193103976340tikz_00004V">
      <path d="M 0.902344 0.320313 L 19.410156 0.320313 L 19.410156 42.710938 L 0.902344 42.710938 Z M 0.902344 0.320313" />
    </clipPath>
    <clipPath id="svg193103976340tikz_00004U">
      <path d="M0 0H20V43H0z" />
    </clipPath>
    <clipPath id="svg193103976340tikz_00004af">
      <path d="M0 0H5V7H0z" />
    </clipPath>
    <clipPath id="svg193103976340tikz_00004ag">
      <path d="M 0.839844 0.308594 L 4.542969 0.308594 L 4.542969 6.734375 L 0.839844 6.734375 Z M 0.839844 0.308594" />
    </clipPath>
    <clipPath id="svg193103976340tikz_00004Y">
      <path d="M 1 6 L 17 6 L 17 42.710938 L 1 42.710938 Z M 1 6" />
    </clipPath>
    <clipPath id="svg193103976340tikz_00004Z">
      <path d="M 16 0.320313 L 19.410156 0.320313 L 19.410156 5 L 16 5 Z M 16 0.320313" />
    </clipPath>
    <clipPath id="svg193103976340tikz_00004X">
      <path d="M0 0H20V43H0z" />
    </clipPath>
    <clipPath id="svg193103976340tikz_00004ad">
      <path d="M0 0H68V25H0z" />
    </clipPath>
    <clipPath id="svg193103976340tikz_00004ab">
      <path d="M 0.0117188 0.0507813 L 34 0.0507813 L 34 7.871094 L 0.0117188 7.871094 Z M 0.0117188 0.0507813" />
    </clipPath>
    <clipPath id="svg193103976340tikz_00004ac">
      <path d="M 0.0117188 0.0507813 L 34.03125 0.0507813 L 34.03125 7.871094 L 0.0117188 7.871094 Z M 0.0117188 0.0507813" />
    </clipPath>
    <clipPath id="svg193103976340tikz_00004aa">
      <path d="M0 0H35V8H0z" />
    </clipPath>
    <clipPath id="svg193103976340tikz_00004ae">
      <path d="M 0.160156 0.492188 L 67.222656 0.492188 L 67.222656 24.492188 L 0.160156 24.492188 Z M 0.160156 0.492188" />
    </clipPath>
    <g id="svg193103976340tikz_00004B" clip-path="url(#svg193103976340tikz_00004w)">
      <g clip-path="url(#svg193103976340tikz_00004x)">
        <path d="M 0.679688 24.824219 C 0.601563 25.292969 0.789063 25.84375 1.414063 25.980469 L 41.519531 34.226563 C 45.550781 35.058594 49.246094 37.09375 52.101563 40.089844 L 79.371094 66.75 C 84.289063 71.871094 92.90625 69.378906 94.335938 62.421875 L 104.796875 11.5625 C 106.226563 4.609375 99.261719 -1.089844 92.753906 1.683594 L 56.941406 15.523438 C 53.136719 17.148438 48.933594 17.5625 44.902344 16.734375 L 5.003906 8.53125 C 4.449219 8.414063 3.957031 8.800781 3.863281 9.332031 C 3.863281 9.332031 3.863281 9.332031 3.859375 9.359375 Z M 0.679688 24.824219" fill="#e3f1fb" />
      </g>
      <g clip-path="url(#svg193103976340tikz_00004y)">
        <path d="M 1076.796875 1859.857812 C 1076.015625 1855.170312 1077.890625 1849.6625 1084.140625 1848.295312 L 1485.195313 1765.834375 C 1525.507813 1757.514062 1562.460938 1737.1625 1591.015625 1707.201562 L 1863.710938 1440.6 C 1912.890625 1389.389062 1999.0625 1414.310937 2013.359375 1483.88125 L 2117.96875 1992.475 C 2132.265625 2062.00625 2062.617188 2118.998437 1997.539063 2091.264062 L 1639.414063 1952.865625 C 1601.367188 1936.615625 1559.335938 1932.475 1519.023438 1940.75625 L 1120.039063 2022.7875 C 1114.492188 2023.959375 1109.570313 2020.092187 1108.632813 2014.779687 C 1108.632813 2014.779687 1108.632813 2014.779687 1108.59375 2014.50625 Z M 1076.796875 1859.857812" transform="matrix(.1 0 0 -.1 -107 210.81)" fill="none" stroke-width="2.984" stroke-linecap="round" stroke-linejoin="round" stroke="#000" stroke-miterlimit="10" />
      </g>
    </g>
    <g id="svg193103976340tikz_00004bk" clip-path="url(#svg193103976340tikz_00004aa)">
      <g clip-path="url(#svg193103976340tikz_00004ab)">
        <path d="M 29.464844 7.722656 L 4.578125 7.722656 C 2.132813 7.722656 0.160156 6.019531 0.160156 3.960938 C 0.160156 1.871094 2.132813 0.199219 4.578125 0.199219 L 29.464844 0.199219 C 31.910156 0.199219 33.882813 1.902344 33.882813 3.960938 C 33.882813 6.019531 31.910156 7.722656 29.464844 7.722656 Z M 29.464844 7.722656" fill="#969696" />
      </g>
      <g clip-path="url(#svg193103976340tikz_00004ac)">
        <path d="M 1154.648438 1430.873437 L 905.78125 1430.873437 C 881.328125 1430.873437 861.601563 1447.904687 861.601563 1468.490625 C 861.601563 1489.389062 881.328125 1506.107812 905.78125 1506.107812 L 1154.648438 1506.107812 C 1179.101563 1506.107812 1198.828125 1489.076562 1198.828125 1468.490625 C 1198.828125 1447.904687 1179.101563 1430.873437 1154.648438 1430.873437 Z M 1154.648438 1430.873437" transform="matrix(.1 0 0 -.1 -86 150.81)" fill="none" stroke-width="2.984" stroke-linecap="round" stroke-linejoin="round" stroke="#000" stroke-miterlimit="10" />
      </g>
    </g>
    <g clip-path="url(#svg193103976340tikz_00004ad)">
      <g clip-path="url(#svg193103976340tikz_00004ae)" id="svg193103976340tikz_00004bl">
        <path d="M 1271.015625 471.498437 L 779.53125 471.498437 L 693.320313 328.842187 L 700.15625 273.060937 L 728.828125 234.857812 L 1306.25 234.857812 L 1341.445313 255.44375 L 1360.546875 304.389062 L 1351.015625 342.279687 Z M 1271.015625 471.498437" transform="matrix(.1 0 0 -.1 -69 47.81)" fill="#aee1f9" stroke-width="2.984" stroke-linecap="round" stroke-linejoin="round" stroke="#000" stroke-miterlimit="10" />
      </g>
    </g>
    <g clip-path="url(#svg193103976340tikz_00004a)">
      <g clip-path="url(#svg193103976340tikz_00004b)" id="svg193103976340tikz_00004aG">
        <path d="M 1009.921875 1327.63125 L 1009.609375 1327.94375 L 796.5625 1689.623437 L 792.65625 1689.623437 C 785.195313 1689.623437 780.429688 1681.264062 784.609375 1674.975 L 1001.5625 1324.935937 L 1001.875 1324.6625 L 1011.132813 1195.717187 L 1020.664063 1179.935937 Z M 1009.921875 1327.63125" transform="matrix(.1 0 0 -.1 -78 169.81)" fill="#e3f2fc" stroke-width="2.984" stroke-linecap="round" stroke-linejoin="round" stroke="#000" stroke-miterlimit="10" />
      </g>
    </g>
    <g clip-path="url(#svg193103976340tikz_00004U)">
      <g clip-path="url(#svg193103976340tikz_00004V)" id="svg193103976340tikz_00004W">
        <path d="M 0.902344 42.710938 L 19.414063 42.710938 L 19.414063 0.320313 L 0.902344 0.320313 Z M 0.902344 42.710938" fill-opacity=".702" />
      </g>
    </g>
    <g clip-path="url(#svg193103976340tikz_00004af)">
      <g clip-path="url(#svg193103976340tikz_00004ag)" id="svg193103976340tikz_00004bm">
        <path d="M 1043.945313 1029.271875 C 1043.945313 1019.896875 1036.328125 1012.240625 1026.914063 1012.240625 C 1017.539063 1012.240625 1009.882813 1019.896875 1009.882813 1029.271875 C 1009.882813 1038.685937 1017.539063 1073.529687 1026.914063 1073.529687 C 1036.328125 1073.529687 1043.945313 1038.685937 1043.945313 1029.271875 Z M 1043.945313 1029.271875" transform="matrix(.1 0 0 -.1 -100 107.81)" fill="#aee1f9" stroke-width="2.984" stroke-linecap="round" stroke-linejoin="round" stroke="#000" stroke-miterlimit="10" />
      </g>
    </g>
    <g clip-path="url(#svg193103976340tikz_00004R)">
      <g clip-path="url(#svg193103976340tikz_00004S)" id="svg193103976340tikz_00004bf">
        <use xlink:href="#svg193103976340tikz_00004T" />
      </g>
    </g>
    <g clip-path="url(#svg193103976340tikz_00004P)">
      <g clip-path="url(#svg193103976340tikz_00004Q)" id="svg193103976340tikz_00004T">
        <path d="M 1020.976563 1179.935937 L 1011.40625 1195.717187 L 1002.148438 1324.6625 L 1001.875 1324.935937 L 784.335938 1674.975 C 780.429688 1681.264062 784.921875 1689.623437 792.382813 1689.623437 L 1261.796875 1689.623437 C 1269.21875 1689.623437 1274.023438 1681.264062 1269.804688 1674.975 L 1052.578125 1324.935937 L 1052.304688 1324.6625 L 1043.046875 1143.217187 L 1036.484375 1154.232812 Z M 1020.976563 1179.935937" transform="matrix(.1 0 0 -.1 -78 169.81)" fill="#e3f1fb" stroke-width="2.984" stroke-linecap="round" stroke-linejoin="round" stroke="#000" stroke-miterlimit="10" />
      </g>
    </g>
    <g clip-path="url(#svg193103976340tikz_00004c)">
      <g clip-path="url(#svg193103976340tikz_00004d)" id="svg193103976340tikz_00004aH">
        <path d="M 1261.796875 1689.623437 L 1257.890625 1689.623437 L 1044.84375 1327.94375 L 1044.53125 1327.63125 L 1036.484375 1153.959375 L 1043.046875 1142.904687 L 1052.304688 1324.35 L 1052.578125 1324.6625 L 1270.117188 1674.6625 C 1274.023438 1681.264062 1269.21875 1689.623437 1261.796875 1689.623437 Z M 1261.796875 1689.623437" transform="matrix(.1 0 0 -.1 -103 169.81)" fill="#e3f2fc" stroke-width="2.984" stroke-linecap="round" stroke-linejoin="round" stroke="#000" stroke-miterlimit="10" />
      </g>
    </g>
    <g id="svg193103976340tikz_00004bn" clip-path="url(#svg193103976340tikz_00004ah)">
      <g clip-path="url(#svg193103976340tikz_00004ai)">
        <path d="M 4.394531 5.171875 C 4.394531 6.113281 3.632813 6.875 2.691406 6.875 C 1.753906 6.875 0.988281 6.113281 0.988281 5.171875 C 0.988281 4.234375 1.753906 0.746094 2.691406 0.746094 C 3.632813 0.746094 4.394531 4.234375 4.394531 5.171875 Z M 4.394531 5.171875" fill="#aee1f9" />
      </g>
      <g clip-path="url(#svg193103976340tikz_00004aj)">
        <path d="M 1043.945313 676.38125 C 1043.945313 666.967187 1036.328125 659.35 1026.914063 659.35 C 1017.539063 659.35 1009.882813 666.967187 1009.882813 676.38125 C 1009.882813 685.75625 1017.539063 720.639062 1026.914063 720.639062 C 1036.328125 720.639062 1043.945313 685.75625 1043.945313 676.38125 Z M 1043.945313 676.38125" transform="matrix(.1 0 0 -.1 -100 72.81)" fill="none" stroke-width="2.984" stroke-linecap="round" stroke-linejoin="round" stroke="#000" stroke-miterlimit="10" />
      </g>
    </g>
    <g clip-path="url(#svg193103976340tikz_00004M)">
      <g clip-path="url(#svg193103976340tikz_00004N)" id="svg193103976340tikz_00004O">
        <path d="M 0.125 55.859375 L 49.382813 55.859375 L 49.382813 0.636719 L 0.125 0.636719 Z M 0.125 55.859375" fill-opacity=".4" />
      </g>
    </g>
    <g clip-path="url(#svg193103976340tikz_00004K)">
      <g clip-path="url(#svg193103976340tikz_00004L)" id="svg193103976340tikz_00004bc">
        <path d="M 45.878906 0.355469 C 45.160156 0.296875 44.382813 0.382813 43.65625 0.507813 C 42.117188 0.738281 40.574219 1.121094 39.078125 1.574219 C 37.648438 2.015625 36.199219 2.539063 34.804688 3.101563 C 33.316406 3.679688 31.8125 4.316406 30.394531 5 C 28.9375 5.703125 27.449219 6.28125 25.960938 6.859375 C 24.429688 7.488281 22.84375 8.078125 21.296875 8.640625 C 18.171875 9.769531 15.035156 10.796875 11.898438 11.828125 C 10.105469 12.402344 8.316406 12.949219 6.527344 13.496094 C 5.621094 13.765625 4.738281 14.042969 3.855469 14.347656 C 3.425781 14.503906 3.003906 14.628906 2.601563 14.820313 C 2.132813 15.027344 1.742188 15.285156 1.257813 15.429688 C 0.964844 15.519531 1.121094 15.949219 1.40625 15.886719 C 1.824219 15.789063 2.242188 15.8125 2.640625 15.804688 C 3.074219 15.773438 3.542969 15.714844 3.960938 15.617188 C 4.75 15.476563 5.519531 15.300781 6.320313 15.097656 C 7.925781 14.699219 9.550781 14.210938 11.140625 13.742188 C 14.285156 12.804688 17.417969 11.804688 20.507813 10.703125 C 23.625 9.609375 26.753906 8.484375 29.824219 7.320313 C 32.699219 6.234375 35.53125 5.050781 38.414063 4.058594 C 39.921875 3.546875 41.609375 3.039063 43.070313 2.761719 C 43.894531 2.597656 44.738281 2.496094 45.589844 2.367188 C 46.027344 2.304688 46.503906 2.21875 46.925781 2.09375 C 47.316406 1.960938 47.65625 1.785156 48.054688 1.625 C 48.351563 1.53125 48.410156 1.089844 48.101563 0.964844 C 47.796875 0.808594 47.492188 0.65625 47.15625 0.523438 C 46.78125 0.417969 46.332031 0.386719 45.878906 0.355469 Z M 45.878906 0.355469" fill="#fff" />
      </g>
    </g>
    <g clip-path="url(#svg193103976340tikz_00004aB)">
      <g clip-path="url(#svg193103976340tikz_00004aC)" id="svg193103976340tikz_00004aD">
        <path d="M 0.484375 44.535156 L 24.964844 44.535156 L 24.964844 0.953125 L 0.484375 0.953125 Z M 0.484375 44.535156" fill-opacity=".702" />
      </g>
    </g>
    <g id="svg193103976340tikz_00004bo" clip-path="url(#svg193103976340tikz_00004ak)">
      <g clip-path="url(#svg193103976340tikz_00004al)">
        <path d="M 43.363281 1.132813 C 43.898438 1.132813 44.316406 1.578125 44.316406 2.089844 L 44.316406 42.820313 C 44.316406 46.9375 45.570313 50.964844 47.925781 54.367188 L 68.695313 86.6875 C 72.726563 92.535156 68.546875 100.472656 61.445313 100.472656 L 9.523438 100.472656 C 2.417969 100.472656 -1.757813 92.503906 2.269531 86.6875 L 22.890625 54.605469 C 25.246094 51.207031 26.5 47.175781 26.5 43.058594 L 26.5 2.089844 C 26.5 1.550781 26.949219 1.132813 27.457031 1.132813 C 27.992188 1.132813 28.410156 1.550781 28.410156 2.089844 L 28.472656 43.777344 C 28.472656 47.683594 27.277344 51.472656 25.070313 54.695313 L 5.613281 84.953125 C 1.824219 90.476563 1.824219 97.964844 10.953125 97.964844 L 59.953125 97.964844 C 68.636719 97.964844 69.085938 90.445313 65.296875 84.953125 L 45.6875 54.457031 C 43.480469 51.234375 42.285156 47.445313 42.285156 43.535156 L 42.285156 2.117188 C 42.347656 1.578125 42.824219 1.132813 43.363281 1.132813 Z M 43.363281 1.132813" fill="#e3f2fc" />
      </g>
      <g clip-path="url(#svg193103976340tikz_00004am)">
        <path d="M 1103.632813 1206.771875 C 1108.984375 1206.771875 1113.164063 1202.31875 1113.164063 1197.201562 L 1113.164063 789.896875 C 1113.164063 748.725 1125.703125 708.451562 1149.257813 674.428125 L 1356.953125 351.225 C 1397.265625 292.748437 1355.46875 213.373437 1284.453125 213.373437 L 765.234375 213.373437 C 694.179688 213.373437 652.421875 293.060937 692.695313 351.225 L 898.90625 672.045312 C 922.460938 706.029687 935 746.342187 935 787.514062 L 935 1197.201562 C 935 1202.592187 939.492188 1206.771875 944.570313 1206.771875 C 949.921875 1206.771875 954.101563 1202.592187 954.101563 1197.201562 L 954.726563 780.326562 C 954.726563 741.264062 942.773438 703.373437 920.703125 671.146875 L 726.132813 368.56875 C 688.242188 313.334375 688.242188 238.451562 779.53125 238.451562 L 1269.53125 238.451562 C 1356.367188 238.451562 1360.859375 313.646875 1322.96875 368.56875 L 1126.875 673.529687 C 1104.804688 705.75625 1092.851563 743.646875 1092.851563 782.748437 L 1092.851563 1196.928125 C 1093.476563 1202.31875 1098.242188 1206.771875 1103.632813 1206.771875 Z M 1103.632813 1206.771875" transform="matrix(.1 0 0 -.1 -67 121.81)" fill="none" stroke-width="2.984" stroke-linecap="round" stroke-linejoin="round" stroke="#000" stroke-miterlimit="10" />
      </g>
    </g>
    <g clip-path="url(#svg193103976340tikz_00004H)">
      <g clip-path="url(#svg193103976340tikz_00004I)" id="svg193103976340tikz_00004J">
        <path d="M 0.832031 16.125 L 48.59375 16.125 L 48.59375 0.304688 L 0.832031 0.304688 Z M 0.832031 16.125" fill-opacity=".702" />
      </g>
    </g>
    <g clip-path="url(#svg193103976340tikz_00004F)">
      <g clip-path="url(#svg193103976340tikz_00004G)" id="svg193103976340tikz_00004aZ">
        <path d="M 8.984375 1.863281 C 7.539063 1.628906 6.097656 1.390625 4.644531 1.183594 C 3.316406 0.972656 1.996094 0.730469 0.6875 0.582031 C 0.214844 0.515625 0.0742188 1.1875 0.53125 1.34375 C 1.769531 1.691406 3.050781 1.984375 4.289063 2.328125 C 5.328125 2.605469 6.398438 2.886719 7.445313 3.128906 C 10.085938 3.765625 12.699219 4.394531 15.359375 4.941406 C 20.472656 5.992188 25.617188 6.898438 30.71875 7.886719 C 32.15625 8.152344 33.589844 8.445313 35.03125 8.679688 C 36.503906 8.925781 38.007813 9.019531 39.492188 9.203125 C 39.792969 9.234375 39.878906 8.824219 39.589844 8.734375 C 38.328125 8.355469 37.070313 7.941406 35.804688 7.589844 C 34.566406 7.246094 33.273438 7.011719 32.023438 6.722656 C 29.457031 6.164063 26.898438 5.574219 24.308594 4.984375 C 21.777344 4.402344 19.210938 3.84375 16.667969 3.320313 C 14.128906 2.769531 11.574219 2.304688 8.984375 1.863281 Z M 8.984375 1.863281" fill="#fff" />
      </g>
    </g>
    <g id="svg193103976340tikz_00004aJ" clip-path="url(#svg193103976340tikz_00004e)">
      <g clip-path="url(#svg193103976340tikz_00004f)">
        <path d="M 1.027344 192.160156 L 4.578125 192.160156 L 4.578125 0.96875 L 1.027344 0.96875 Z M 1.027344 192.160156" fill="#969696" />
      </g>
      <g clip-path="url(#svg193103976340tikz_00004g)">
        <path d="M 340.273438 186.498437 L 375.78125 186.498437 L 375.78125 2098.4125 L 340.273438 2098.4125 Z M 340.273438 186.498437" transform="matrix(.1 0 0 -.1 -33 210.81)" fill="none" stroke-width="2.984" stroke-linecap="round" stroke-linejoin="round" stroke="#000" stroke-miterlimit="10" />
      </g>
    </g>
    <g clip-path="url(#svg193103976340tikz_00004an)">
      <g clip-path="url(#svg193103976340tikz_00004ao)" id="svg193103976340tikz_00004ap">
        <path d="M 0.378906 100.699219 L 70.53125 100.699219 L 70.53125 0.695313 L 0.378906 0.695313 Z M 0.378906 100.699219" fill-opacity=".4" />
      </g>
    </g>
    <g clip-path="url(#svg193103976340tikz_00004h)">
      <g clip-path="url(#svg193103976340tikz_00004i)" id="svg193103976340tikz_00004aL">
        <path d="M 1790.234375 213.373437 L 185.703125 213.373437 C 171.09375 213.373437 158.867188 201.420312 158.867188 186.498437 C 158.867188 171.889062 170.78125 159.6625 185.703125 159.6625 L 1790.546875 159.6625 C 1805.195313 159.6625 1817.421875 171.615625 1817.421875 186.498437 C 1817.109375 201.420312 1805.195313 213.373437 1790.234375 213.373437 Z M 1790.234375 213.373437" transform="matrix(.1 0 0 -.1 -15 21.81)" fill="#969696" stroke-width="2.984" stroke-linecap="round" stroke-linejoin="round" stroke="#000" stroke-miterlimit="10" />
      </g>
    </g>
    <g clip-path="url(#svg193103976340tikz_00004C)">
      <g clip-path="url(#svg193103976340tikz_00004D)" id="svg193103976340tikz_00004E">
        <path d="M 0.144531 9.230469 L 39.847656 9.230469 L 39.847656 0.574219 L 0.144531 0.574219 Z M 0.144531 9.230469" fill-opacity=".702" />
      </g>
    </g>
    <g clip-path="url(#svg193103976340tikz_00004z)">
      <g clip-path="url(#svg193103976340tikz_00004A)" id="svg193103976340tikz_00004aW">
        <use xlink:href="#svg193103976340tikz_00004B" />
      </g>
    </g>
    <g id="svg193103976340tikz_00004bi" clip-path="url(#svg193103976340tikz_00004X)">
      <g clip-path="url(#svg193103976340tikz_00004Y)">
        <path d="M 16.121094 6.53125 C 15.730469 6.292969 15.074219 6.414063 14.898438 6.863281 C 14.566406 7.429688 14.242188 7.996094 13.941406 8.5625 C 13.164063 9.964844 12.359375 11.335938 11.585938 12.738281 C 10.601563 14.5 9.585938 16.261719 8.601563 18.023438 C 7.644531 19.691406 6.71875 21.335938 5.765625 23.003906 C 5.050781 24.257813 4.273438 25.480469 3.644531 26.796875 C 3.171875 27.75 2.722656 28.703125 2.246094 29.660156 C 1.855469 30.464844 1.46875 31.273438 1.230469 32.164063 C 0.992188 33.0625 1.019531 33.957031 1.050781 34.882813 C 1.109375 37.121094 1.140625 39.359375 1.230469 41.597656 C 1.230469 41.773438 1.289063 41.953125 1.320313 42.132813 C 1.320313 42.253906 1.347656 42.34375 1.410156 42.460938 C 1.46875 42.578125 1.589844 42.609375 1.675781 42.550781 C 1.765625 42.492188 1.765625 42.371094 1.765625 42.253906 C 1.707031 41.355469 1.796875 40.492188 1.824219 39.597656 C 1.824219 38.671875 1.824219 37.777344 1.855469 36.851563 C 1.886719 36.015625 1.855469 35.121094 2.007813 34.316406 C 2.15625 33.539063 2.484375 32.792969 2.871094 32.078125 C 3.644531 30.675781 4.363281 29.242188 5.167969 27.839844 C 5.945313 26.4375 6.75 25.035156 7.527344 23.632813 C 8.511719 21.902344 9.496094 20.140625 10.480469 18.410156 C 11.433594 16.710938 12.421875 14.976563 13.375 13.277344 C 14.121094 11.964844 14.839844 10.679688 15.582031 9.367188 C 15.882813 8.859375 16.179688 8.324219 16.449219 7.816406 C 16.628906 7.308594 16.566406 6.800781 16.121094 6.53125 Z M 16.121094 6.53125" fill="#fff" />
      </g>
      <g clip-path="url(#svg193103976340tikz_00004Z)">
        <path d="M 19.34375 1.132813 C 19.164063 0.597656 18.65625 0.324219 18.121094 0.445313 C 17.613281 0.566406 17.402344 1.011719 17.195313 1.429688 C 17.074219 1.640625 16.957031 1.878906 16.867188 2.085938 C 16.71875 2.355469 16.597656 2.652344 16.476563 2.953125 C 16.359375 3.25 16.238281 3.550781 16.238281 3.847656 C 16.238281 4.207031 16.449219 4.503906 16.777344 4.652344 C 16.925781 4.714844 17.074219 4.742188 17.226563 4.714844 C 17.433594 4.683594 17.550781 4.59375 17.730469 4.472656 C 17.882813 4.355469 17.972656 4.175781 18.089844 4.027344 C 18.148438 3.9375 18.238281 3.816406 18.296875 3.699219 C 18.417969 3.488281 18.539063 3.28125 18.65625 3.070313 C 18.777344 2.863281 18.894531 2.652344 19.015625 2.445313 C 19.195313 2.027344 19.519531 1.640625 19.34375 1.132813 Z M 19.34375 1.132813" fill="#fff" />
      </g>
    </g>
    <g id="svg193103976340tikz_00004aM" clip-path="url(#svg193103976340tikz_00004j)">
      <g clip-path="url(#svg193103976340tikz_00004k)">
        <path d="M 1.140625 3.601563 L 78.457031 3.601563 L 78.457031 0.292969 L 1.140625 0.292969 Z M 1.140625 3.601563" fill="#969696" />
      </g>
      <g clip-path="url(#svg193103976340tikz_00004l)">
        <path d="M 171.40625 1452.084375 L 944.570313 1452.084375 L 944.570313 1485.170312 L 171.40625 1485.170312 Z M 171.40625 1452.084375" transform="matrix(.1 0 0 -.1 -16 148.81)" fill="none" stroke-width="2.984" stroke-linecap="round" stroke-linejoin="round" stroke="#000" stroke-miterlimit="10" />
      </g>
    </g>
    <g id="svg193103976340tikz_00004av" clip-path="url(#svg193103976340tikz_00004aq)">
      <g clip-path="url(#svg193103976340tikz_00004ar)">
        <path d="M 27.484375 1.132813 C 26.949219 1.132813 26.5 1.535156 26.5 2.089844 L 26.5 43.027344 C 26.5 47.148438 25.246094 51.175781 22.890625 54.578125 L 2.269531 86.65625 C -1.757813 92.503906 2.417969 100.441406 9.523438 100.441406 L 61.445313 100.441406 C 68.546875 100.441406 72.726563 92.476563 68.695313 86.65625 L 47.925781 54.367188 C 45.570313 50.964844 44.316406 46.9375 44.316406 42.820313 L 44.316406 2.089844 C 44.316406 1.476563 43.785156 1.132813 43.300781 1.132813 C 43.300781 1.132813 43.300781 1.132813 43.273438 1.132813 Z M 27.484375 1.132813" fill="#e3f1fb" />
      </g>
      <g clip-path="url(#svg193103976340tikz_00004as)">
        <path d="M 944.84375 1206.771875 C 939.492188 1206.771875 935 1202.748437 935 1197.201562 L 935 787.826562 C 935 746.615625 922.460938 706.342187 898.90625 672.31875 L 692.695313 351.5375 C 652.421875 293.060937 694.179688 213.685937 765.234375 213.685937 L 1284.453125 213.685937 C 1355.46875 213.685937 1397.265625 293.334375 1356.953125 351.5375 L 1149.257813 674.428125 C 1125.703125 708.451562 1113.164063 748.725 1113.164063 789.896875 L 1113.164063 1197.201562 C 1113.164063 1203.334375 1107.851563 1206.771875 1103.007813 1206.771875 C 1103.007813 1206.771875 1103.007813 1206.771875 1102.734375 1206.771875 Z M 944.84375 1206.771875" transform="matrix(.1 0 0 -.1 -67 121.81)" fill="none" stroke-width="2.984" stroke-linecap="round" stroke-linejoin="round" stroke="#000" stroke-miterlimit="10" />
      </g>
    </g>
    <g clip-path="url(#svg193103976340tikz_00004s)">
      <g clip-path="url(#svg193103976340tikz_00004t)" id="svg193103976340tikz_00004v">
        <path d="M 0.382813 69.695313 L 105.160156 69.695313 L 105.160156 0.738281 L 0.382813 0.738281 Z M 0.382813 69.695313" fill-opacity=".4" />
      </g>
    </g>
    <g clip-path="url(#svg193103976340tikz_00004at)">
      <g clip-path="url(#svg193103976340tikz_00004au)" id="svg193103976340tikz_00004bq">
        <use xlink:href="#svg193103976340tikz_00004av" />
      </g>
    </g>
    <g clip-path="url(#svg193103976340tikz_00004az)">
      <g clip-path="url(#svg193103976340tikz_00004aA)" id="svg193103976340tikz_00004bt">
        <path d="M 2.527344 9.097656 C 2.46875 7.636719 2.40625 6.171875 2.316406 4.710938 C 2.257813 3.367188 2.230469 2.023438 2.109375 0.710938 C 2.078125 0.234375 1.394531 0.234375 1.332031 0.710938 C 1.242188 1.996094 1.214844 3.308594 1.125 4.59375 C 1.066406 5.664063 1.003906 6.769531 0.976563 7.84375 C 0.886719 10.558594 0.796875 13.246094 0.796875 15.960938 C 0.796875 21.183594 0.945313 26.40625 1.003906 31.597656 C 1.035156 33.058594 1.035156 34.523438 1.09375 35.984375 C 1.152344 37.476563 1.363281 38.96875 1.480469 40.460938 C 1.511719 40.757813 1.929688 40.757813 1.960938 40.460938 C 2.078125 39.148438 2.230469 37.835938 2.316406 36.523438 C 2.40625 35.238281 2.378906 33.925781 2.40625 32.640625 C 2.4375 30.015625 2.496094 27.390625 2.558594 24.734375 C 2.617188 22.136719 2.644531 19.511719 2.644531 16.917969 C 2.675781 14.320313 2.617188 11.722656 2.527344 9.097656 Z M 2.527344 9.097656" fill="#fff" />
      </g>
    </g>
    <g clip-path="url(#svg193103976340tikz_00004q)">
      <g clip-path="url(#svg193103976340tikz_00004r)" id="svg193103976340tikz_00004aU">
        <path d="M 1108.789063 2015.365625 C 1109.84375 2020.639062 1115.078125 2023.803125 1120.039063 2022.7875 L 1519.023438 1940.75625 C 1559.335938 1932.475 1601.367188 1936.615625 1639.414063 1952.865625 L 1997.8125 2091.185937 C 2063.203125 2118.88125 2132.539063 2061.967187 2118.242188 1992.396875 L 2013.632813 1483.803125 C 1999.335938 1414.232812 1912.890625 1389.389062 1864.023438 1440.560937 L 1591.328125 1707.123437 C 1562.734375 1737.084375 1525.820313 1757.475 1485.46875 1765.795312 L 1084.140625 1848.295312 C 1078.90625 1849.389062 1075.703125 1854.623437 1076.71875 1859.584375 C 1077.8125 1864.857812 1082.734375 1868.1 1088.007813 1867.00625 L 1496.445313 1783.607812 C 1534.765625 1775.75625 1569.453125 1756.420312 1596.601563 1728.295312 L 1853.789063 1476.771875 C 1900.234375 1428.529687 1973.59375 1413.451562 1991.992188 1502.904687 L 2090.664063 1982.826562 C 2108.164063 2067.904687 2035.390625 2087.435937 1973.984375 2061.342187 L 1635.78125 1930.75625 C 1599.765625 1915.639062 1560.234375 1911.576562 1521.953125 1919.428125 L 1116.25 2002.865625 C 1111.09375 2004.545312 1107.695313 2010.092187 1108.789063 2015.365625 Z M 1108.789063 2015.365625" transform="matrix(.1 0 0 -.1 -107 210.81)" fill="#e3f2fc" stroke-width="2.984" stroke-linecap="round" stroke-linejoin="round" stroke="#000" stroke-miterlimit="10" />
      </g>
    </g>
    <g clip-path="url(#svg193103976340tikz_00004m)">
      <g clip-path="url(#svg193103976340tikz_00004n)" id="svg193103976340tikz_00004aN">
        <path d="M 373.398438 1383.725 L 342.695313 1383.725 C 326.25 1383.725 313.125 1396.889062 313.125 1413.295312 L 313.125 1523.998437 C 313.125 1540.404687 326.25 1553.529687 342.695313 1553.529687 L 373.398438 1553.529687 C 389.804688 1553.529687 402.96875 1540.404687 402.96875 1523.998437 L 402.96875 1413.295312 C 402.65625 1396.889062 389.53125 1383.725 373.398438 1383.725 Z M 373.398438 1383.725" transform="matrix(.1 0 0 -.1 -31 155.81)" fill="#969696" stroke-width="2.984" stroke-linecap="round" stroke-linejoin="round" stroke="#000" stroke-miterlimit="10" />
      </g>
    </g>
    <g clip-path="url(#svg193103976340tikz_00004aw)">
      <g clip-path="url(#svg193103976340tikz_00004ax)" id="svg193103976340tikz_00004ay">
        <path d="M 0.589844 40.96875 L 2.679688 40.96875 L 2.679688 0.0703125 L 0.589844 0.0703125 Z M 0.589844 40.96875" fill-opacity=".702" />
      </g>
    </g>
    <g clip-path="url(#svg193103976340tikz_00004o)">
      <g clip-path="url(#svg193103976340tikz_00004p)" id="svg193103976340tikz_00004aO">
        <path d="M 1101.367188 1874.0375 C 1093.359375 1873.998437 1085.351563 1872.553125 1077.96875 1869.35 C 1070.976563 1866.342187 1068.164063 1862.748437 1063.59375 1857.240625 C 1052.851563 1844.389062 1044.765625 1831.06875 1039.6875 1814.935937 C 1029.101563 1781.420312 1028.085938 1744.81875 1025.742188 1709.935937 C 1023.945313 1682.904687 1023.789063 1655.678125 1021.640625 1628.685937 C 1019.492188 1601.810937 1016.5625 1575.44375 1016.875 1548.4125 C 1016.953125 1542.279687 1017.265625 1535.795312 1020.625 1530.678125 C 1025.195313 1523.685937 1035 1521.146875 1042.890625 1523.88125 C 1050.820313 1526.615625 1056.640625 1533.842187 1059.023438 1541.889062 C 1062.5 1553.646875 1058.75 1567.670312 1057.304688 1579.584375 C 1048.554688 1652.592187 1050.15625 1728.373437 1058.710938 1801.264062 C 1060.3125 1814.6625 1062.265625 1828.178125 1066.757813 1840.990625 C 1069.53125 1848.842187 1075.507813 1867.63125 1087.109375 1863.88125 C 1094.414063 1861.498437 1099.804688 1855.404687 1107.109375 1852.94375 C 1110.390625 1851.810937 1114.0625 1851.420312 1117.421875 1850.678125 C 1126.875 1848.607812 1136.328125 1846.5375 1145.742188 1844.467187 C 1174.375 1838.217187 1203.007813 1831.967187 1231.601563 1825.717187 C 1265.898438 1818.217187 1300.195313 1810.717187 1334.492188 1803.217187 C 1367.578125 1795.951562 1400.625 1788.725 1433.671875 1781.498437 C 1458.59375 1776.06875 1483.515625 1770.6 1508.4375 1765.170312 C 1518.28125 1762.982812 1528.125 1760.834375 1537.96875 1758.685937 L 1577.695313 1732.045312 L 1886.054688 1436.615625 L 1942.109375 1432.123437 L 1985.273438 1452.475 L 2075.195313 1874.0375 C 2075.195313 1874.0375 1101.367188 1874.0375 1101.367188 1874.0375 Z M 1101.367188 1874.0375" transform="matrix(.1 0 0 -.1 -101 187.81)" fill="#aee1f9" stroke-width="2.984" stroke-linecap="round" stroke-linejoin="round" stroke="#000" stroke-miterlimit="10" />
      </g>
    </g>
    <g clip-path="url(#svg193103976340tikz_00004aE)">
      <g clip-path="url(#svg193103976340tikz_00004aF)" id="svg193103976340tikz_00004bw">
        <path d="M 24.773438 41.863281 C 24.683594 41.148438 24.445313 40.402344 24.175781 39.714844 C 23.640625 38.253906 22.953125 36.820313 22.207031 35.449219 C 21.492188 34.132813 20.683594 32.820313 19.847656 31.570313 C 18.984375 30.226563 18.058594 28.882813 17.105469 27.628906 C 16.117188 26.347656 15.253906 25.003906 14.386719 23.660156 C 13.464844 22.289063 12.566406 20.855469 11.703125 19.453125 C 9.972656 16.617188 8.328125 13.753906 6.6875 10.886719 C 5.765625 9.246094 4.871094 7.605469 3.972656 5.964844 C 3.527344 5.128906 3.078125 4.324219 2.601563 3.519531 C 2.363281 3.128906 2.152344 2.742188 1.886719 2.382813 C 1.585938 1.964844 1.257813 1.636719 1.019531 1.191406 C 0.871094 0.921875 0.480469 1.160156 0.601563 1.429688 C 0.78125 1.816406 0.839844 2.234375 0.929688 2.625 C 1.050781 3.039063 1.199219 3.488281 1.378906 3.875 C 1.675781 4.621094 2.003906 5.339844 2.363281 6.085938 C 3.078125 7.578125 3.882813 9.066406 4.660156 10.53125 C 6.210938 13.425781 7.824219 16.289063 9.523438 19.09375 C 11.226563 21.929688 12.957031 24.765625 14.714844 27.539063 C 16.359375 30.136719 18.089844 32.671875 19.640625 35.296875 C 20.445313 36.671875 21.28125 38.222656 21.847656 39.597656 C 22.175781 40.371094 22.445313 41.179688 22.742188 41.984375 C 22.894531 42.402344 23.070313 42.847656 23.28125 43.238281 C 23.488281 43.59375 23.730469 43.894531 23.96875 44.25 C 24.117188 44.519531 24.5625 44.488281 24.625 44.160156 C 24.714844 43.832031 24.804688 43.503906 24.863281 43.148438 C 24.894531 42.757813 24.832031 42.3125 24.773438 41.863281 Z M 24.773438 41.863281" fill="#fff" />
      </g>
    </g>
    <mask id="svg193103976340tikz_00004bu">
      <g filter="url(#svg193103976340tikz_00004u)">
        <use xlink:href="#svg193103976340tikz_00004ay" />
      </g>
    </mask>
    <mask id="svg193103976340tikz_00004bj">
      <g filter="url(#svg193103976340tikz_00004u)">
        <use xlink:href="#svg193103976340tikz_00004W" />
      </g>
    </mask>
    <mask id="svg193103976340tikz_00004aX">
      <g filter="url(#svg193103976340tikz_00004u)">
        <use xlink:href="#svg193103976340tikz_00004v" />
      </g>
    </mask>
    <mask id="svg193103976340tikz_00004br">
      <g filter="url(#svg193103976340tikz_00004u)">
        <use xlink:href="#svg193103976340tikz_00004ap" />
      </g>
    </mask>
    <mask id="svg193103976340tikz_00004bg">
      <g filter="url(#svg193103976340tikz_00004u)">
        <use xlink:href="#svg193103976340tikz_00004O" />
      </g>
    </mask>
    <mask id="svg193103976340tikz_00004bd">
      <g filter="url(#svg193103976340tikz_00004u)">
        <use xlink:href="#svg193103976340tikz_00004J" />
      </g>
    </mask>
    <mask id="svg193103976340tikz_00004bx">
      <g filter="url(#svg193103976340tikz_00004u)">
        <use xlink:href="#svg193103976340tikz_00004aD" />
      </g>
    </mask>
    <mask id="svg193103976340tikz_00004ba">
      <g filter="url(#svg193103976340tikz_00004u)">
        <use xlink:href="#svg193103976340tikz_00004E" />
      </g>
    </mask>
    <linearGradient id="svg193103976340tikz_00004aS" gradientUnits="userSpaceOnUse" x1="475.547" y1="75.698" x2="475.547" y2="223.789" gradientTransform="translate(15.736 15.818) scale(.29841)">
      <stop offset="0" stop-color="#aee1f9" />
      <stop offset=".031" stop-color="#aee1f9" />
      <stop offset=".047" stop-color="#aee1f9" />
      <stop offset=".051" stop-color="#aee0f7" />
      <stop offset=".055" stop-color="#afe0f7" />
      <stop offset=".059" stop-color="#afe0f6" />
      <stop offset=".063" stop-color="#afe0f5" />
      <stop offset=".066" stop-color="#afdff4" />
      <stop offset=".07" stop-color="#afdff4" />
      <stop offset=".074" stop-color="#b0dff3" />
      <stop offset=".078" stop-color="#b0def2" />
      <stop offset=".082" stop-color="#b0def1" />
      <stop offset=".086" stop-color="#b0def0" />
      <stop offset=".09" stop-color="#b0def0" />
      <stop offset=".094" stop-color="#b0ddef" />
      <stop offset=".098" stop-color="#b1ddee" />
      <stop offset=".102" stop-color="#b1dded" />
      <stop offset=".105" stop-color="#b1dced" />
      <stop offset=".109" stop-color="#b1dcec" />
      <stop offset=".113" stop-color="#b1dceb" />
      <stop offset=".117" stop-color="#b2dcea" />
      <stop offset=".121" stop-color="#b2dbea" />
      <stop offset=".125" stop-color="#b2dbe9" />
      <stop offset=".129" stop-color="#b2dbe8" />
      <stop offset=".133" stop-color="#b2dbe7" />
      <stop offset=".137" stop-color="#b3dae6" />
      <stop offset=".141" stop-color="#b3dae6" />
      <stop offset=".145" stop-color="#b3dae5" />
      <stop offset=".148" stop-color="#b3d9e4" />
      <stop offset=".152" stop-color="#b3d9e3" />
      <stop offset=".156" stop-color="#b3d9e3" />
      <stop offset=".16" stop-color="#b4d9e2" />
      <stop offset=".164" stop-color="#b4d8e1" />
      <stop offset=".168" stop-color="#b4d8e0" />
      <stop offset=".172" stop-color="#b4d8df" />
      <stop offset=".176" stop-color="#b4d7df" />
      <stop offset=".18" stop-color="#b5d7de" />
      <stop offset=".184" stop-color="#b5d7dd" />
      <stop offset=".188" stop-color="#b5d7dc" />
      <stop offset=".191" stop-color="#b5d6dc" />
      <stop offset=".195" stop-color="#b5d6db" />
      <stop offset=".199" stop-color="#b6d6da" />
      <stop offset=".203" stop-color="#b6d5d9" />
      <stop offset=".207" stop-color="#b6d5d9" />
      <stop offset=".211" stop-color="#b6d5d8" />
      <stop offset=".215" stop-color="#b6d5d7" />
      <stop offset=".219" stop-color="#b7d4d6" />
      <stop offset=".223" stop-color="#b7d4d5" />
      <stop offset=".227" stop-color="#b7d4d5" />
      <stop offset=".23" stop-color="#b7d3d4" />
      <stop offset=".234" stop-color="#b7d3d3" />
      <stop offset=".238" stop-color="#b7d3d2" />
      <stop offset=".242" stop-color="#b8d3d2" />
      <stop offset=".246" stop-color="#b8d2d1" />
      <stop offset=".25" stop-color="#b8d2d0" />
      <stop offset=".254" stop-color="#b8d2cf" />
      <stop offset=".258" stop-color="#b8d2cf" />
      <stop offset=".262" stop-color="#b9d1ce" />
      <stop offset=".266" stop-color="#b9d1cd" />
      <stop offset=".27" stop-color="#b9d1cc" />
      <stop offset=".273" stop-color="#b9d0cb" />
      <stop offset=".277" stop-color="#b9d0cb" />
      <stop offset=".281" stop-color="#bad0ca" />
      <stop offset=".285" stop-color="#bad0c9" />
      <stop offset=".289" stop-color="#bacfc8" />
      <stop offset=".293" stop-color="#bacfc8" />
      <stop offset=".297" stop-color="#bacfc7" />
      <stop offset=".301" stop-color="#bacec6" />
      <stop offset=".305" stop-color="#bbcec5" />
      <stop offset=".309" stop-color="#bbcec5" />
      <stop offset=".313" stop-color="#bbcec4" />
      <stop offset=".316" stop-color="#bbcdc3" />
      <stop offset=".32" stop-color="#bbcdc2" />
      <stop offset=".324" stop-color="#bccdc1" />
      <stop offset=".328" stop-color="#bcccc1" />
      <stop offset=".332" stop-color="#bcccc0" />
      <stop offset=".336" stop-color="#bcccbf" />
      <stop offset=".34" stop-color="#bcccbe" />
      <stop offset=".344" stop-color="#bdcbbe" />
      <stop offset=".348" stop-color="#bdcbbd" />
      <stop offset=".352" stop-color="#bdcbbc" />
      <stop offset=".355" stop-color="#bdcbbb" />
      <stop offset=".359" stop-color="#bdcabb" />
      <stop offset=".363" stop-color="#bdcaba" />
      <stop offset=".367" stop-color="#becab9" />
      <stop offset=".371" stop-color="#bec9b8" />
      <stop offset=".375" stop-color="#bec9b7" />
      <stop offset=".379" stop-color="#bec9b7" />
      <stop offset=".383" stop-color="#bec9b6" />
      <stop offset=".387" stop-color="#bfc8b5" />
      <stop offset=".391" stop-color="#bfc8b4" />
      <stop offset=".395" stop-color="#bfc8b4" />
      <stop offset=".398" stop-color="#bfc7b3" />
      <stop offset=".402" stop-color="#bfc7b2" />
      <stop offset=".406" stop-color="#c0c7b1" />
      <stop offset=".41" stop-color="#c0c7b0" />
      <stop offset=".414" stop-color="#c0c6b0" />
      <stop offset=".418" stop-color="#c0c6af" />
      <stop offset=".422" stop-color="#c0c6ae" />
      <stop offset=".426" stop-color="#c1c5ad" />
      <stop offset=".43" stop-color="#c1c5ad" />
      <stop offset=".434" stop-color="#c1c5ac" />
      <stop offset=".438" stop-color="#c1c5ab" />
      <stop offset=".441" stop-color="#c1c4aa" />
      <stop offset=".445" stop-color="#c1c4aa" />
      <stop offset=".449" stop-color="#c2c4a9" />
      <stop offset=".453" stop-color="#c2c4a8" />
      <stop offset=".457" stop-color="#c2c3a7" />
      <stop offset=".461" stop-color="#c2c3a6" />
      <stop offset=".465" stop-color="#c2c3a6" />
      <stop offset=".469" stop-color="#c3c2a5" />
      <stop offset=".473" stop-color="#c3c2a4" />
      <stop offset=".477" stop-color="#c3c2a3" />
      <stop offset=".48" stop-color="#c3c2a3" />
      <stop offset=".484" stop-color="#c3c1a2" />
      <stop offset=".488" stop-color="#c4c1a1" />
      <stop offset=".492" stop-color="#c4c1a0" />
      <stop offset=".496" stop-color="#c4c0a0" />
      <stop offset=".5" stop-color="#c4c09f" />
      <stop offset=".504" stop-color="#c4c09e" />
      <stop offset=".508" stop-color="#c4c09d" />
      <stop offset=".512" stop-color="#c5bf9c" />
      <stop offset=".516" stop-color="#c5bf9c" />
      <stop offset=".52" stop-color="#c5bf9b" />
      <stop offset=".523" stop-color="#c5be9a" />
      <stop offset=".527" stop-color="#c5be99" />
      <stop offset=".531" stop-color="#c6be99" />
      <stop offset=".535" stop-color="#c6be98" />
      <stop offset=".539" stop-color="#c6bd97" />
      <stop offset=".543" stop-color="#c6bd96" />
      <stop offset=".547" stop-color="#c6bd96" />
      <stop offset=".551" stop-color="#c7bc95" />
      <stop offset=".555" stop-color="#c7bc94" />
      <stop offset=".559" stop-color="#c7bc93" />
      <stop offset=".563" stop-color="#c7bc92" />
      <stop offset=".566" stop-color="#c7bb92" />
      <stop offset=".57" stop-color="#c8bb91" />
      <stop offset=".574" stop-color="#c8bb90" />
      <stop offset=".578" stop-color="#c8bb8f" />
      <stop offset=".582" stop-color="#c8ba8f" />
      <stop offset=".586" stop-color="#c8ba8e" />
      <stop offset=".59" stop-color="#c8ba8d" />
      <stop offset=".594" stop-color="#c9b98c" />
      <stop offset=".598" stop-color="#c9b98c" />
      <stop offset=".602" stop-color="#c9b98b" />
      <stop offset=".605" stop-color="#c9b98a" />
      <stop offset=".609" stop-color="#c9b889" />
      <stop offset=".613" stop-color="#cab888" />
      <stop offset=".617" stop-color="#cab888" />
      <stop offset=".621" stop-color="#cab787" />
      <stop offset=".625" stop-color="#cab786" />
      <stop offset=".629" stop-color="#cab785" />
      <stop offset=".633" stop-color="#cbb785" />
      <stop offset=".637" stop-color="#cbb684" />
      <stop offset=".641" stop-color="#cbb683" />
      <stop offset=".645" stop-color="#cbb682" />
      <stop offset=".648" stop-color="#cbb581" />
      <stop offset=".652" stop-color="#cbb581" />
      <stop offset=".656" stop-color="#ccb580" />
      <stop offset=".66" stop-color="#ccb57f" />
      <stop offset=".664" stop-color="#ccb47e" />
      <stop offset=".668" stop-color="#ccb47e" />
      <stop offset=".672" stop-color="#ccb47d" />
      <stop offset=".676" stop-color="#cdb47c" />
      <stop offset=".68" stop-color="#cdb37b" />
      <stop offset=".684" stop-color="#cdb37b" />
      <stop offset=".688" stop-color="#cdb37a" />
      <stop offset=".691" stop-color="#cdb279" />
      <stop offset=".695" stop-color="#ceb278" />
      <stop offset=".699" stop-color="#ceb277" />
      <stop offset=".703" stop-color="#ceb277" />
      <stop offset=".707" stop-color="#ceb176" />
      <stop offset=".711" stop-color="#ceb175" />
      <stop offset=".715" stop-color="#ceb174" />
      <stop offset=".719" stop-color="#cfb074" />
      <stop offset=".723" stop-color="#cfb073" />
      <stop offset=".727" stop-color="#cfb072" />
      <stop offset=".73" stop-color="#cfb071" />
      <stop offset=".734" stop-color="#cfaf71" />
      <stop offset=".738" stop-color="#d0af70" />
      <stop offset=".742" stop-color="#d0af6f" />
      <stop offset=".746" stop-color="#d0ae6e" />
      <stop offset=".75" stop-color="#d0ae6d" />
      <stop offset=".754" stop-color="#d0ae6d" />
      <stop offset=".758" stop-color="#d1ae6c" />
      <stop offset=".762" stop-color="#d1ad6b" />
      <stop offset=".766" stop-color="#d1ad6a" />
      <stop offset=".77" stop-color="#d1ad6a" />
      <stop offset=".773" stop-color="#d1ac69" />
      <stop offset=".777" stop-color="#d2ac68" />
      <stop offset=".781" stop-color="#d2ac67" />
      <stop offset=".785" stop-color="#d2ac67" />
      <stop offset=".789" stop-color="#d2ab66" />
      <stop offset=".793" stop-color="#d2ab65" />
      <stop offset=".797" stop-color="#d2ab64" />
      <stop offset=".801" stop-color="#d3ab63" />
      <stop offset=".805" stop-color="#d3aa63" />
      <stop offset=".813" stop-color="#d3aa62" />
      <stop offset=".875" stop-color="#d3aa62" />
      <stop offset="1" stop-color="#d3aa62" />
    </linearGradient>
    <filter id="svg193103976340tikz_00004u" filterUnits="objectBoundingBox" x="0%" y="0%" width="100%" height="100%">
      <feColorMatrix in="SourceGraphic" values="0 0 0 0 1 0 0 0 0 1 0 0 0 0 1 0 0 0 1 0" />
    </filter>
  </defs>
  <use xlink:href="#svg193103976340tikz_00004aG" transform="translate(78 56)" />
  <use xlink:href="#svg193103976340tikz_00004aH" transform="translate(103 56)" />
  <g clip-path="url(#svg193103976340tikz_00004aI)">
    <use xlink:href="#svg193103976340tikz_00004aJ" transform="translate(33 15)" />
  </g>
  <g clip-path="url(#svg193103976340tikz_00004aK)">
    <use xlink:href="#svg193103976340tikz_00004aL" transform="translate(15 204)" />
  </g>
  <use xlink:href="#svg193103976340tikz_00004aM" transform="translate(16 77)" />
  <use xlink:href="#svg193103976340tikz_00004aN" transform="translate(31 70)" />
  <path d="M39.339844 82.453125C39.339844 81.765625 39.3125 81.082031 39.3125 80.394531 39.3125 79.738281 39.28125 79.050781 39.28125 78.394531 39.28125 77.738281 39.339844 77.082031 39.3125 76.394531 39.3125 75.738281 39.28125 75.082031 39.28125 74.425781 39.28125 73.886719 39.222656 73.351563 39.042969 72.84375 38.65625 71.859375 37.789063 71.410156 36.773438 71.292969 36.207031 71.234375 35.609375 71.234375 35.011719 71.261719 34.328125 71.292969 33.550781 71.292969 32.925781 71.5625 32.804688 71.621094 32.804688 71.800781 32.925781 71.859375 33.550781 72.128906 34.328125 72.097656 35.011719 72.128906 35.609375 72.15625 36.238281 72.097656 36.863281 72.21875 37.402344 72.335938 37.90625 72.574219 38.144531 73.113281 38.386719 73.679688 38.355469 74.367188 38.355469 74.992188 38.386719 76.574219 38.503906 78.125 38.535156 79.707031 38.566406 80.484375 38.566406 81.289063 38.59375 82.066406 38.59375 82.453125 38.59375 82.871094 38.65625 83.257813 38.683594 83.617188 38.832031 83.976563 38.921875 84.304688 38.953125 84.390625 39.101563 84.390625 39.101563 84.304688 39.160156 84.003906 39.25 83.707031 39.3125 83.40625 39.339844 83.109375 39.339844 82.78125 39.339844 82.453125zM84.519531 78.007813C78.910156 77.828125 73.296875 77.945313 67.71875 77.945313 62.109375 77.945313 56.527344 77.917969 50.917969 77.976563 49.367188 78.007813 47.816406 78.007813 46.261719 78.035156 44.683594 78.035156 43.070313 78.035156 41.460938 78.183594 41.21875 78.214844 41.21875 78.546875 41.460938 78.546875 42.863281 78.664063 44.265625 78.664063 45.667969 78.691406 47.070313 78.691406 48.472656 78.722656 49.875 78.722656 52.648438 78.753906 55.453125 78.753906 58.230469 78.753906 63.839844 78.753906 69.417969 78.753906 75.03125 78.753906 78.164063 78.753906 81.328125 78.78125 84.460938 78.691406 84.90625 78.664063 84.90625 78.035156 84.519531 78.007813zM30.597656 78.335938C29.613281 78.007813 28.476563 78.097656 27.464844 78.097656 26.359375 78.097656 25.285156 78.066406 24.179688 78.066406 23.078125 78.066406 22.003906 78.066406 20.898438 78.066406 20.390625 78.066406 19.851563 78.066406 19.347656 78.066406 18.898438 78.066406 18.242188 77.917969 17.886719 78.246094 17.796875 78.335938 17.796875 78.515625 17.886719 78.605469 18.214844 78.929688 18.839844 78.78125 19.257813 78.78125 19.792969 78.78125 20.363281 78.78125 20.898438 78.78125 22.003906 78.78125 23.078125 78.78125 24.179688 78.78125 25.285156 78.78125 26.359375 78.753906 27.464844 78.753906 28.476563 78.753906 29.613281 78.84375 30.597656 78.515625 30.6875 78.484375 30.6875 78.363281 30.597656 78.335938zM36.625 69.144531C36.863281 65.832031 36.773438 62.488281 36.773438 59.175781 36.773438 55.773438 36.773438 52.402344 36.773438 49L36.773438 28.769531C36.773438 26.859375 36.773438 24.949219 36.746094 23.039063 36.714844 21.128906 36.804688 19.222656 36.59375 17.3125 36.566406 17.101563 36.238281 17.101563 36.238281 17.3125 36.058594 18.980469 36.117188 20.710938 36.089844 22.414063 36.058594 24.113281 36.058594 25.816406 36.058594 27.515625 36.058594 30.917969 36.058594 34.289063 36.058594 37.691406 36.058594 44.4375 36.058594 51.179688 36.058594 57.921875 36.058594 61.652344 35.9375 65.414063 36.207031 69.175781 36.355469 69.144531 36.476563 69.144531 36.625 69.144531zM36.773438 134.914063C36.773438 124.855469 36.714844 114.800781 36.714844 104.714844 36.714844 101.910156 36.714844 99.105469 36.714844 96.300781 36.714844 93.671875 36.746094 91.015625 36.59375 88.390625 36.476563 88.390625 36.324219 88.390625 36.207031 88.421875 36.089844 90.71875 36.117188 93.046875 36.089844 95.375 36.089844 97.910156 36.089844 100.445313 36.089844 103.015625 36.089844 108.058594 36.058594 113.070313 36.058594 118.113281 36.058594 128.167969 36.058594 175.347656 36.027344 185.433594 36.027344 191.105469 35.96875 196.773438 36.027344 202.441406 36.027344 202.921875 36.746094 202.949219 36.746094 202.441406 36.835938 197.371094 36.773438 192.269531 36.746094 187.195313 36.804688 182.09375 36.804688 139.957031 36.773438 134.914063zM36.773438 134.914063" fill="#ccc" />
  <use xlink:href="#svg193103976340tikz_00004aO" transform="translate(101 38)" />
  <g clip-path="url(#svg193103976340tikz_00004aP)">
    <g clip-path="url(#svg193103976340tikz_00004aQ)">
      <g clip-path="url(#svg193103976340tikz_00004aR)">
        <path d="M 107.21875 38.40625 L 107.21875 82.597656 L 207.519531 82.597656 L 207.519531 38.40625 Z M 107.21875 38.40625" fill="url(#svg193103976340tikz_00004aS)" />
      </g>
    </g>
  </g>
  <path d="M 1101.367188 1874.0375 C 1093.359375 1873.998437 1085.351563 1872.553125 1077.96875 1869.35 C 1070.976563 1866.342187 1068.164063 1862.748437 1063.59375 1857.240625 C 1052.851563 1844.389062 1044.765625 1831.06875 1039.6875 1814.935937 C 1029.101563 1781.420312 1028.085938 1744.81875 1025.742188 1709.935937 C 1023.828125 1681.107812 1022.65625 1652.1625 1021.679688 1623.334375 C 1021.25 1610.482812 1019.492188 1597.475 1018.398438 1584.545312 C 1017.226563 1571.264062 1017.265625 1558.1 1017.578125 1544.779687 C 1017.734375 1538.607812 1019.882813 1531.928125 1024.648438 1527.748437 C 1031.992188 1521.342187 1044.21875 1523.725 1050.898438 1530.795312 C 1057.578125 1537.904687 1059.609375 1548.25625 1059.414063 1557.982812 C 1059.0625 1576.69375 1055.351563 1595.482812 1053.945313 1614.154687 C 1052.34375 1635.13125 1051.5625 1656.146875 1051.484375 1677.201562 C 1051.328125 1718.646875 1053.867188 1760.092187 1058.710938 1801.264062 C 1060.3125 1814.6625 1062.265625 1828.178125 1066.757813 1840.990625 C 1069.53125 1848.842187 1075.507813 1867.63125 1087.109375 1863.88125 C 1094.414063 1861.498437 1099.804688 1855.404687 1107.109375 1852.94375 C 1110.390625 1851.810937 1114.0625 1851.420312 1117.421875 1850.678125 C 1126.875 1848.607812 1136.328125 1846.5375 1145.742188 1844.467187 C 1174.375 1838.217187 1203.007813 1831.967187 1231.601563 1825.717187 C 1265.898438 1818.217187 1300.195313 1810.717187 1334.492188 1803.217187 C 1367.578125 1795.951562 1400.625 1788.725 1433.671875 1781.498437 C 1458.59375 1776.06875 1483.515625 1770.6 1508.4375 1765.170312 C 1518.28125 1762.982812 1528.125 1760.834375 1537.96875 1758.685937 L 1577.695313 1732.045312 L 1886.054688 1436.615625 L 1942.109375 1432.123437 L 1985.273438 1452.475 L 2075.195313 1874.0375 C 2075.195313 1874.0375 1101.367188 1874.0375 1101.367188 1874.0375 Z M 1101.367188 1874.0375" transform="matrix(.1 0 0 -.1 0 225.81)" fill="none" stroke-width="2.984" stroke-linecap="round" stroke-linejoin="round" stroke="#000" stroke-miterlimit="10" />
  <path d="M 121.1875 63.941406 L 114.511719 75.441406 L 114.449219 75.410156 C 114.746094 74.84375 115.078125 74.15625 114.808594 73.589844 C 114.539063 73.054688 113.882813 72.8125 113.285156 72.933594 C 112.6875 73.023438 112.183594 73.351563 111.675781 73.679688 C 111.167969 74.007813 110.628906 74.308594 110.03125 74.335938 C 108.183594 74.457031 106.988281 72.007813 105.140625 71.980469 C 103.914063 71.949219 102.960938 73.023438 101.914063 73.679688 C 100.78125 74.394531 99.378906 74.695313 98.039063 74.484375 C 96.15625 74.1875 94.753906 72.875 92.933594 72.457031 C 92.488281 72.335938 92.007813 72.277344 91.5625 72.367188 C 91.113281 72.457031 90.667969 72.664063 90.425781 73.082031 C 90.21875 73.410156 90.1875 73.886719 90.398438 74.21875 L 90.308594 74.277344 L 84.308594 63.953125 L 90.519531 65.980469 L 96.652344 63.949219 L 102.785156 65.980469 L 108.921875 63.945313 L 115.054688 65.976563 Z M 99.859375 73.203125 C 100.035156 72.875 99.945313 72.488281 99.796875 72.15625 C 99.617188 71.769531 99.320313 71.410156 98.933594 71.234375 C 98.214844 70.875 97.113281 71.234375 97.082031 72.15625 C 97.082031 72.992188 98.007813 73.589844 98.753906 73.648438 C 99.171875 73.679688 99.648438 73.558594 99.859375 73.203125 Z M 99.859375 73.203125" fill="#f4f4f4" />
  <path d="M 90.398438 74.21875 C 90.1875 73.886719 90.21875 73.410156 90.425781 73.082031 C 90.667969 72.695313 91.113281 72.457031 91.5625 72.367188 C 92.007813 72.277344 92.488281 72.367188 92.933594 72.457031 C 94.753906 72.875 96.1875 74.1875 98.039063 74.484375 C 99.378906 74.695313 100.78125 74.394531 101.914063 73.679688 C 102.960938 73.023438 103.886719 71.949219 105.140625 71.980469 C 106.988281 72.007813 108.183594 74.457031 110.03125 74.335938 C 110.628906 74.308594 111.167969 73.976563 111.675781 73.679688 C 112.183594 73.351563 112.6875 73.023438 113.285156 72.933594 C 113.882813 72.84375 114.570313 73.054688 114.808594 73.589844 C 115.078125 74.1875 114.777344 74.84375 114.449219 75.410156 L 114.511719 75.441406 L 113.644531 76.933594 C 113.257813 76.394531 112.601563 76.097656 111.972656 76.007813 C 111.167969 75.917969 110.363281 76.097656 109.617188 76.363281 C 108.839844 76.605469 108.09375 76.902344 107.289063 77.023438 C 104.453125 77.378906 101.679688 75.261719 98.902344 75.886719 C 97.738281 76.15625 96.695313 76.871094 95.5 76.933594 C 94.398438 76.992188 93.171875 76.453125 92.246094 77.050781 C 92.15625 77.113281 92.070313 77.199219 92.097656 77.289063 L 92.039063 77.320313 L 90.277344 74.308594 Z M 90.398438 74.21875" fill="#e4e8ea" />
  <path d="M 92.128906 77.261719 C 92.097656 77.171875 92.1875 77.082031 92.277344 77.023438 C 93.203125 76.453125 94.425781 76.960938 95.53125 76.902344 C 96.722656 76.84375 97.769531 76.128906 98.933594 75.859375 C 101.707031 75.230469 104.484375 77.351563 107.316406 76.992188 C 108.121094 76.871094 108.871094 76.605469 109.644531 76.335938 C 110.390625 76.097656 111.195313 75.886719 112.003906 75.976563 C 112.660156 76.066406 113.316406 76.394531 113.675781 76.902344 L 102.78125 95.703125 L 92.070313 77.261719 Z M 92.128906 77.261719" fill="#ccd3d6" />
  <path d="M 99.796875 72.15625 C 99.945313 72.488281 100.035156 72.875 99.859375 73.203125 C 99.648438 73.558594 99.171875 73.679688 98.753906 73.648438 C 98.039063 73.589844 97.082031 72.992188 97.082031 72.15625 C 97.082031 71.234375 98.214844 70.875 98.933594 71.234375 C 99.320313 71.441406 99.617188 71.769531 99.796875 72.15625 Z M 99.796875 72.15625" fill="#e4e8ea" />
  <path d="M 903.085938 1515.326562 L 843.085938 1618.56875 L 905.195313 1598.178125 L 966.523438 1618.607812 L 1027.851563 1598.217187 L 1089.21875 1618.646875 L 1150.546875 1598.25625 L 1211.875 1618.685937 L 1145.117188 1503.685937 L 1136.445313 1488.764062 L 1027.539063 1300.75625 L 920.390625 1485.209375 Z M 903.085938 1515.326562" transform="matrix(.1 0 0 -.1 0 225.81)" fill="none" stroke-width="2.984" stroke-linecap="round" stroke-linejoin="round" stroke="#000" stroke-miterlimit="10" />
  <path d="M1089.21875 1618.646875L1027.851563 1302.826562M966.523438 1618.607812L1027.8125 1301.06875" transform="matrix(.1 0 0 -.1 0 225.81)" fill="none" stroke-width="2.984" stroke-linecap="round" stroke-linejoin="round" stroke="#9b9b9b" stroke-miterlimit="10" />
  <path d="M1150.546875 1598.25625L1027.539063 1300.75625M1027.851563 1598.217187L1027.851563 1302.826562M905.195313 1598.178125L1027.8125 1301.06875M903.085938 1515.326562L843.085938 1618.56875 905.195313 1598.178125 966.523438 1618.607812 1027.851563 1598.217187 1089.21875 1618.646875 1150.546875 1598.25625 1211.875 1618.685937 1145.117188 1503.685937 1136.445313 1488.764062 1027.539063 1300.75625 920.390625 1485.209375zM903.085938 1515.326562" transform="matrix(.1 0 0 -.1 0 225.81)" fill="none" stroke-width="2.984" stroke-linecap="round" stroke-linejoin="round" stroke="#000" stroke-miterlimit="10" />
  <g clip-path="url(#svg193103976340tikz_00004aT)">
    <use xlink:href="#svg193103976340tikz_00004aU" transform="translate(107 15)" />
  </g>
  <g clip-path="url(#svg193103976340tikz_00004aV)">
    <use xlink:href="#svg193103976340tikz_00004aW" transform="translate(107 15)" mask="url(#svg193103976340tikz_00004aX)" />
  </g>
  <g clip-path="url(#svg193103976340tikz_00004aY)">
    <use xlink:href="#svg193103976340tikz_00004aZ" transform="translate(115 28)" mask="url(#svg193103976340tikz_00004ba)" />
  </g>
  <g clip-path="url(#svg193103976340tikz_00004bb)">
    <use xlink:href="#svg193103976340tikz_00004bc" transform="translate(157 22)" mask="url(#svg193103976340tikz_00004bd)" />
  </g>
  <g clip-path="url(#svg193103976340tikz_00004be)">
    <use xlink:href="#svg193103976340tikz_00004bf" transform="translate(78 56)" mask="url(#svg193103976340tikz_00004bg)" />
  </g>
  <path d="M 1020.976563 1179.935937 L 1011.40625 1195.717187 L 1002.148438 1324.6625 L 1001.875 1324.935937 L 784.335938 1674.975 C 780.429688 1681.264062 784.921875 1689.623437 792.382813 1689.623437 L 1261.796875 1689.623437 C 1269.21875 1689.623437 1274.023438 1681.264062 1269.804688 1674.975 L 1052.578125 1324.935937 L 1052.304688 1324.6625 L 1043.046875 1143.217187 L 1036.484375 1154.232812 Z M 1020.976563 1179.935937" transform="matrix(.1 0 0 -.1 0 225.81)" fill="none" stroke-width="2.984" stroke-linecap="round" stroke-linejoin="round" stroke="#000" stroke-miterlimit="10" />
  <g clip-path="url(#svg193103976340tikz_00004bh)">
    <use xlink:href="#svg193103976340tikz_00004bi" transform="translate(102 59)" mask="url(#svg193103976340tikz_00004bj)" />
  </g>
  <use xlink:href="#svg193103976340tikz_00004bk" transform="translate(86 75)" />
  <path d="M 116.449219 77.976563 L 89.5625 77.976563 C 89.023438 77.976563 88.578125 77.617188 88.578125 77.140625 C 88.578125 76.695313 89.023438 76.304688 89.5625 76.304688 L 116.449219 76.304688 C 116.988281 76.304688 117.433594 76.664063 117.433594 77.140625 C 117.402344 77.589844 116.988281 77.976563 116.449219 77.976563 Z M 116.449219 77.976563" fill="#ccc" />
  <use xlink:href="#svg193103976340tikz_00004bl" transform="translate(69 178)" />
  <use xlink:href="#svg193103976340tikz_00004bm" transform="translate(100 118)" />
  <use xlink:href="#svg193103976340tikz_00004bn" transform="translate(100 153)" />
  <use xlink:href="#svg193103976340tikz_00004bo" transform="translate(67 104)" />
  <g clip-path="url(#svg193103976340tikz_00004bp)">
    <use xlink:href="#svg193103976340tikz_00004bq" transform="translate(67 104)" mask="url(#svg193103976340tikz_00004br)" />
  </g>
  <g clip-path="url(#svg193103976340tikz_00004bs)">
    <use xlink:href="#svg193103976340tikz_00004bt" transform="translate(105 110)" mask="url(#svg193103976340tikz_00004bu)" />
  </g>
  <g clip-path="url(#svg193103976340tikz_00004bv)">
    <use xlink:href="#svg193103976340tikz_00004bw" transform="translate(106 153)" mask="url(#svg193103976340tikz_00004bx)" />
  </g>
</svg>